<svg xmlns="http://www.w3.org/2000/svg" width="556" height="522" fill="none" viewBox="0 0 556 522"><path fill="url(#a)" fill-rule="evenodd" d="M549.199 121.754 281.89.904a10.372 10.372 0 0 0-8.474 0L6.052 121.755c-6.554 2.961-8.117 11.572-3.044 16.645l5.155 5.155a10.32 10.32 0 0 0 7.267 3.017H539.82c2.742 0 5.347-1.097 7.267-3.017l5.128-5.155c5.073-5.073 3.51-13.684-3.044-16.645h.027Z" clip-rule="evenodd"/><path fill="url(#b)" d="M150.072 500.451H15.869c-5.68 0-10.284 4.604-10.284 10.283 0 5.68 4.604 10.284 10.284 10.284h134.203c5.679 0 10.283-4.604 10.283-10.284 0-5.679-4.604-10.283-10.283-10.283Z"/><path fill="url(#c)" d="M150.072 465.022H35.859c-5.679 0-10.283 4.604-10.283 10.283 0 5.68 4.604 10.283 10.283 10.283h114.213c5.679 0 10.283-4.603 10.283-10.283 0-5.679-4.604-10.283-10.283-10.283Z"/><path fill="url(#d)" d="M545.717 500.451H411.513c-5.679 0-10.283 4.604-10.283 10.283 0 5.68 4.604 10.284 10.283 10.284h134.204c5.679 0 10.283-4.604 10.283-10.284 0-5.679-4.604-10.283-10.283-10.283Z"/><path fill="url(#e)" d="M525.699 465.022H411.486c-5.679 0-10.283 4.604-10.283 10.283 0 5.68 4.604 10.283 10.283 10.283h114.213c5.679 0 10.283-4.603 10.283-10.283 0-5.679-4.604-10.283-10.283-10.283Z"/><path fill="url(#f)" fill-rule="evenodd" d="M185.501 465.022h189.733c5.594 0 10.146 4.607 10.146 10.283v35.429c0 5.677-4.552 10.284-10.146 10.284H185.501c-5.594 0-10.146-4.607-10.146-10.284v-35.429c0-5.676 4.552-10.283 10.146-10.283Z" clip-rule="evenodd"/><path fill="url(#g)" d="M471.924 177.831h-41.16c-5.68 0-10.284 4.604-10.284 10.283V422.6c0 5.679 4.604 10.283 10.284 10.283h41.16c5.679 0 10.283-4.604 10.283-10.283V188.114c0-5.679-4.604-10.283-10.283-10.283Z"/><path fill="url(#h)" d="M124.487 177.831h-41.16c-5.68 0-10.283 4.604-10.283 10.283v235.309c0 5.679 4.604 10.283 10.283 10.283h41.16c5.68 0 10.284-4.604 10.284-10.283V188.114c0-5.679-4.604-10.283-10.284-10.283Z"/><path fill="url(#i)" d="M298.206 177.831h-41.161c-5.679 0-10.283 4.604-10.283 10.283v235.309c0 5.679 4.604 10.283 10.283 10.283h41.161c5.679 0 10.283-4.604 10.283-10.283V188.114c0-5.679-4.604-10.283-10.283-10.283Z"/><g filter="url(#j)"><rect width="372" height="117.474" x="92" y="252" fill="#fff" rx="20"/></g><path fill="#222" d="M201.231 309.495c0 4.871-.778 8.397-2.33 10.581-1.553 2.185-4.377 3.277-8.469 3.277-4.094 0-6.916-1.118-8.468-3.356-1.553-2.237-2.33-5.758-2.33-10.562 0-4.803.789-8.371 2.37-10.7 1.578-2.33 4.382-3.494 8.41-3.494 4.028 0 6.837 1.158 8.431 3.474 1.59 2.318 2.386 5.911 2.386 10.78Zm-18.478-.08c0 4.003.526 6.877 1.578 8.628 1.053 1.75 3.086 2.625 6.101 2.625 3.014 0 5.041-.855 6.081-2.567 1.041-1.71 1.561-4.58 1.561-8.608 0-4.028-.54-6.962-1.619-8.805-1.08-1.842-3.099-2.765-6.061-2.765-2.961 0-4.974.915-6.041 2.745-1.068 1.831-1.6 4.747-1.6 8.747ZM206.285 331.726v-28.509h2.922v1.421c2.001-1.21 3.974-1.816 5.923-1.816 2.502 0 4.317.797 5.449 2.39 1.133 1.592 1.699 4.219 1.699 7.877 0 3.659-.666 6.284-1.993 7.876-1.33 1.593-3.534 2.39-6.614 2.39-1.606 0-3.079-.146-4.422-.435v8.806h-2.964Zm8.409-26.259c-.789 0-1.638.132-2.547.395-.909.263-1.627.526-2.153.789l-.749.395v13.305c1.869.289 3.29.435 4.265.435 2.133 0 3.625-.606 4.482-1.816.856-1.21 1.284-3.185 1.284-5.923 0-2.737-.389-4.686-1.164-5.844-.779-1.156-1.917-1.736-3.418-1.736ZM240.518 320.511l1.146-.118.08 2.33c-3.002.421-5.567.632-7.699.632-2.842 0-4.857-.823-6.041-2.468-1.184-1.644-1.778-4.205-1.778-7.679 0-6.922 2.75-10.384 8.253-10.384 2.659 0 4.646.744 5.961 2.23 1.316 1.487 1.976 3.825 1.976 7.008l-.162 2.25h-13.031c0 2.185.395 3.805 1.184 4.857.79 1.053 2.165 1.579 4.126 1.579 1.963 0 3.958-.078 5.985-.237Zm-1.066-8.568c0-2.422-.389-4.132-1.164-5.133-.777-1-2.041-1.5-3.791-1.5-1.752 0-3.067.526-3.948 1.578-.883 1.052-1.338 2.739-1.361 5.055h10.264ZM249.993 322.96h-2.962v-19.743h2.922v1.381c2.133-1.184 4.172-1.778 6.121-1.778 2.633 0 4.403.712 5.312 2.133.908 1.421 1.361 3.948 1.361 7.582v10.423h-2.922v-10.344c0-2.736-.271-4.614-.809-5.626-.54-1.013-1.692-1.521-3.454-1.521-.843 0-1.732.126-2.665.375-.935.251-1.652.494-2.152.731l-.75.355v16.032h-.002ZM287.425 313.76h-6.95v9.2h-3.039v-27.325h9.989c2.974 0 5.172.724 6.593 2.173 1.421 1.449 2.133 3.659 2.133 6.633 0 6.212-2.91 9.319-8.726 9.319Zm-6.95-2.684h6.91c3.765 0 5.647-2.211 5.647-6.633 0-2.105-.449-3.654-1.344-4.64-.895-.987-2.33-1.481-4.303-1.481h-6.91v12.754ZM314.076 309.18v10.109c.08.975.841 1.553 2.29 1.738l-.117 2.33c-2.081 0-3.645-.526-4.7-1.579-2.37 1.053-4.737 1.579-7.107 1.579-1.816 0-3.199-.514-4.146-1.541-.946-1.026-1.421-2.501-1.421-4.422 0-1.922.487-3.337 1.461-4.246.973-.908 2.499-1.467 4.58-1.678l6.199-.592v-1.698c0-1.343-.291-2.304-.869-2.882-.58-.578-1.37-.869-2.37-.869-2.107 0-4.291.132-6.555.395l-1.224.117-.118-2.25c2.896-.578 5.461-.869 7.7-.869 2.236 0 3.862.514 4.877 1.541 1.012 1.026 1.52 2.633 1.52 4.817Zm-12.161 8.054c0 2.422 1 3.634 3.001 3.634 1.79 0 3.554-.303 5.292-.909l.909-.315v-6.516l-5.844.553c-1.184.105-2.041.448-2.567 1.026-.528.58-.791 1.421-.791 2.527ZM317.867 303.217h2.962l4.935 17.176h1.303l4.975-17.176h2.962l-8.214 28.509h-2.961l2.567-8.766h-2.922l-5.607-19.743ZM341.754 322.96h-2.961v-19.743h2.922v1.381c1.975-1.184 3.894-1.778 5.764-1.778 2.447 0 4.159.672 5.132 2.013.869-.526 1.993-.992 3.376-1.401 1.381-.408 2.599-.612 3.653-.612 2.633 0 4.403.706 5.312 2.113.909 1.409 1.361 3.942 1.361 7.602v10.423h-2.962v-10.344c0-2.736-.263-4.614-.789-5.626-.526-1.013-1.646-1.521-3.356-1.521-.869 0-1.764.126-2.685.375-.921.251-1.632.494-2.132.731l-.75.355c.341.869.514 2.79.514 5.764v10.266h-2.961v-10.186c0-2.842-.257-4.772-.77-5.784-.514-1.013-1.638-1.521-3.376-1.521-.843 0-1.704.126-2.587.375-.883.251-1.561.494-2.033.731l-.672.355v16.032ZM385.227 320.511l1.146-.118.08 2.33c-3.001.421-5.567.632-7.699.632-2.842 0-4.857-.823-6.041-2.468-1.184-1.644-1.778-4.205-1.778-7.679 0-6.922 2.751-10.384 8.253-10.384 2.659 0 4.646.744 5.964 2.23 1.315 1.487 1.975 3.825 1.975 7.008l-.158 2.25h-13.03c0 2.185.394 3.805 1.184 4.857.789 1.053 2.164 1.579 4.125 1.579a76.44 76.44 0 0 0 5.979-.237Zm-1.066-8.568c0-2.422-.389-4.132-1.164-5.133-.777-1-2.041-1.5-3.791-1.5s-3.067.526-3.948 1.578c-.883 1.052-1.337 2.739-1.361 5.055h10.264ZM394.704 322.96h-2.961v-19.743h2.922v1.381c2.132-1.184 4.171-1.778 6.12-1.778 2.633 0 4.403.712 5.312 2.133.909 1.421 1.361 3.948 1.361 7.582v10.423h-2.922v-10.344c0-2.736-.271-4.614-.809-5.626-.54-1.013-1.692-1.521-3.454-1.521-.843 0-1.732.126-2.665.375-.934.251-1.652.494-2.152.731l-.75.355v16.032h-.002ZM423.054 305.784h-6.278v9.437c0 2.264.163 3.751.494 4.463.329.711 1.112 1.066 2.35 1.066l3.514-.237.197 2.447c-1.764.289-3.105.435-4.028.435-2.053 0-3.474-.501-4.265-1.501-.79-1.001-1.184-2.908-1.184-5.726v-10.384h-2.804v-2.567h2.804v-6.041h2.922v6.041h6.278v2.567ZM432.886 305.467c-2.87 0-4.303 1.001-4.303 3.002 0 .92.328 1.572.986 1.955.658.382 2.159.777 4.5 1.184 2.342.408 4.001.98 4.975 1.718.973.737 1.461 2.118 1.461 4.145 0 2.027-.652 3.514-1.955 4.463-1.304.947-3.205 1.421-5.706 1.421-1.633 0-3.554-.185-5.764-.552l-1.184-.198.157-2.567c3.002.449 5.264.672 6.793.672 1.526 0 2.69-.243 3.494-.731.803-.487 1.203-1.304 1.203-2.448s-.342-1.921-1.026-2.33c-.686-.408-2.184-.795-4.5-1.164-2.316-.368-3.963-.909-4.935-1.618-.975-.712-1.461-2.027-1.461-3.948 0-1.922.677-3.343 2.033-4.266 1.355-.92 3.047-1.381 5.074-1.381 1.605 0 3.62.186 6.041.552l1.106.198-.079 2.527c-2.922-.423-5.226-.634-6.91-.634Z"/><path fill="#FFA6B2" fill-rule="evenodd" d="M165.475 308.056c-.95-8.935-6.596-16.467-14.423-20.082h-7.306l-1.564 9.58c6.643 1.664 10.225 5.337 11.781 11.933l11.511-1.431h.001Z" clip-rule="evenodd"/><path fill="#B3EDDF" fill-rule="evenodd" d="m129.026 332.991 2.433-13.96c-.761-.694-3.891 2.778-4.515 1.959h-6.003v5.346a25.163 25.163 0 0 0 8.085 6.655Z" clip-rule="evenodd"/><path fill="#FFB985" fill-rule="evenodd" d="m165.491 308.228-13.039-.648c.116.801 0 3.276 0 4.107 0 2.515.2 3.734-.78 5.884l4.329 3.419h7.428a24.968 24.968 0 0 0 2.187-10.252c0-.847-.042-1.685-.125-2.51Z" clip-rule="evenodd"/><path fill="#FFCBA9" fill-rule="evenodd" d="M159.188 305.299a4.173 4.173 0 0 0-4.173 4.172v.589a4.173 4.173 0 0 0 8.345 0v-.589a4.172 4.172 0 0 0-4.172-4.172Z" clip-rule="evenodd"/><path fill="#68C180" fill-rule="evenodd" d="M164.467 318.267c-3.197 10.161-12.693 17.53-23.91 17.53-1.022 0-2.031-.061-3.022-.181l1.452-11.959c.96.168 2.83.43 3.763.045 4.941-2.039 5.486-2.816 9.476-6.664l12.239 1.229h.002Z" clip-rule="evenodd"/><path fill="#2E9C86" fill-rule="evenodd" d="M124.402 317.247c.23.21.451.426.665.651a20.07 20.07 0 0 1-.289-.651h-.378.002Zm11.601 10.169c0 2.7-.52 5.282-1.468 7.654a24.935 24.935 0 0 1-6.555-2.651c-.246-.144.278-1.73.339-1.987.819-3.387 1.803-6.851 2-10.343.022-.409.133-1.347-.174-1.69 2.152 2.389 4.471 3.436 7.663 4.307 0 .102-1.805 4.608-1.805 4.71Z" clip-rule="evenodd"/><path fill="#98E1D0" fill-rule="evenodd" d="M117.216 319.883h5.682v-14.55h-6.82a25.112 25.112 0 0 0-.583 5.403c0 3.229.609 6.313 1.721 9.147Z" clip-rule="evenodd"/><path fill="#56B7B5" fill-rule="evenodd" d="M116.986 319.275a13.338 13.338 0 0 0 5.487-10.793c0-3.745-1.543-7.132-4.025-9.558a25.169 25.169 0 0 1 5.964-7.355c1.971 1.785 7.73 5.959 8.983 8.33-3.572 3.122-6.065 6.518-5.555 11.608.392 3.918.42 4.39 2.668 7.528-1.481 3.037-6.426 6.865-8.664 8.374a25.02 25.02 0 0 1-4.856-8.132l-.002-.002Z" clip-rule="evenodd"/><path fill="#8075B3" fill-rule="evenodd" d="M141.363 285.688a24.07 24.07 0 0 0-.808-.012c-9.302 0-17.422 5.068-21.745 12.593h10.021a16.97 16.97 0 0 1 12.534-4.602v-7.981l-.002.002Z" clip-rule="evenodd"/><path fill="#549458" fill-rule="evenodd" d="M138.628 335.723c.026-2.905 2.444-10.093 3.758-12.474-.077 0-.778.901-.856.901-1.825 0-3.494-.144-5.144-.676-1.077 2.426-2.854 8.495-2.993 11.285 1.678.499 3.431.827 5.235.966v-.002Zm26.462-19.829-.007-.005-.024-.011-.049-.023c-.034-.015-.067-.029-.1-.045l-.213-.093c-.076-.032-.151-.064-.228-.093a24.364 24.364 0 0 0-.243-.095c-.084-.034-.17-.065-.256-.097l-.269-.096-.281-.099c-.093-.031-.195-.067-.292-.098a27.019 27.019 0 0 0-.302-.099l-.313-.1-.321-.1a15.79 15.79 0 0 0-.329-.098c-.109-.032-.223-.067-.335-.099-.113-.031-.229-.065-.343-.098-.114-.033-.232-.065-.348-.097-.116-.031-.233-.065-.351-.096l-.355-.095a20.851 20.851 0 0 0-.358-.093l-.36-.092a47.46 47.46 0 0 1-.361-.089c-.119-.03-.24-.06-.361-.088-.122-.028-.241-.058-.361-.086a46.212 46.212 0 0 0-.358-.083l-.357-.08a25.078 25.078 0 0 0-.353-.078l-.349-.073a26.581 26.581 0 0 0-.345-.071 49.793 49.793 0 0 1-.337-.068c-.112-.023-.221-.042-.332-.063a16.212 16.212 0 0 0-.323-.06c-.107-.02-.211-.037-.316-.056a7.505 7.505 0 0 0-.306-.051l-.295-.048c-.099-.016-.19-.028-.285-.042a11.605 11.605 0 0 0-.272-.037c-.09-.01-.174-.023-.26-.031-.083-.009-.165-.02-.248-.027-.077-.007-.155-.016-.232-.021l-.095-.007c-.337 1.857-.709 3.902-1.595 5.495.93-.007 1.864.207 2.783.341a55.916 55.916 0 0 1 9.047 2.088c.062.02.447-1.024.485-1.122.257-.633.455-1.284.64-1.939.021 0 .112-.403.124-.45.043-.16.085-.318.125-.478.042-.169.076-.339.114-.509.004-.034.014-.067.023-.099.007-.035.016-.068.025-.103l.049-.202c.003-.013.009-.025.003-.034v-.007Z" clip-rule="evenodd"/><path fill="#FF9852" fill-rule="evenodd" d="M165.431 307.675a6.587 6.587 0 0 0-5.836-4.48c-2.594-.162-5.05 1.265-6.254 3.382.397 2.023.664 4.07.531 6.225-.016.257-.086.446-.109.701 1.112 1.569 2.948 2.705 5.016 2.835a6.584 6.584 0 0 0 6.837-5.143 36.588 36.588 0 0 0-.183-3.52h-.002Zm-2.129 2.348a4.123 4.123 0 1 1-3.858-4.369 4.123 4.123 0 0 1 3.86 4.371l-.002-.002Z" clip-rule="evenodd"/><path fill="#825282" fill-rule="evenodd" d="M118.989 297.964c8.568-1.356 16.089-5.859 21.341-12.286h.225c3.463 0 6.76.702 9.761 1.971-1.543 2.373-5.012 8.063-6.971 10.088-1.449-.4-2.498.023-4.042.348-6.938 1.462-7.346 3.808-10.928 8.569-2.686.659-9.829.787-12.684.924a24.917 24.917 0 0 1 3.298-9.614Z" clip-rule="evenodd"/><path fill="#FF7A7F" fill-rule="evenodd" d="M163.548 300.746c-.19.006-.355.007-.546.007-9.306 0-17.104-6.28-19.323-14.893 9.481 1.179 16.638 7.447 19.869 14.886Z" clip-rule="evenodd"/><path fill="#fff" d="M140.676 324.179c7.376 0 13.355-5.979 13.355-13.355 0-7.375-5.979-13.354-13.355-13.354-7.375 0-13.355 5.979-13.355 13.354 0 7.376 5.98 13.355 13.355 13.355ZM107.684 101.04c-3.386 0-5.08 1.187-5.08 3.56 0 1.227.4 2.107 1.2 2.64.8.507 2.56 1.147 5.28 1.92 2.747.747 4.68 1.653 5.8 2.72 1.12 1.04 1.68 2.693 1.68 4.96 0 2.88-.826 5.04-2.48 6.48-1.626 1.413-3.853 2.12-6.68 2.12-2.266 0-4.773-.267-7.52-.8l-1.44-.28.44-3.56c3.6.48 6.347.72 8.24.72 3.307 0 4.96-1.467 4.96-4.4 0-1.147-.373-1.987-1.12-2.52-.746-.56-2.426-1.16-5.04-1.8-2.613-.667-4.56-1.573-5.84-2.72-1.28-1.147-1.92-2.96-1.92-5.44 0-2.48.8-4.347 2.4-5.6 1.627-1.28 3.867-1.92 6.72-1.92 2.054 0 4.48.24 7.28.72l1.4.24-.36 3.6c-3.733-.427-6.373-.64-7.92-.64Zm25.279 3.96h4.32v20h-4.32v-1.24c-1.947 1.12-3.747 1.68-5.4 1.68-2.747 0-4.587-.733-5.52-2.2-.933-1.493-1.4-4.093-1.4-7.8V105h4.36v10.48c0 2.4.2 4.013.6 4.84.4.827 1.333 1.24 2.8 1.24 1.44 0 2.76-.267 3.96-.8l.6-.24V105Zm9.599 28.6V105h4.32v1.24c1.84-1.12 3.56-1.68 5.16-1.68 2.64 0 4.573.813 5.8 2.44 1.227 1.6 1.84 4.307 1.84 8.12 0 3.787-.707 6.453-2.12 8-1.387 1.547-3.667 2.32-6.84 2.32-1.093 0-2.36-.12-3.8-.36v8.52h-4.36Zm8.72-25.16c-1.253 0-2.507.28-3.76.84l-.6.28v11.8c1.067.213 2.24.32 3.52.32 1.813 0 3.067-.52 3.76-1.56.693-1.04 1.04-2.813 1.04-5.32 0-4.24-1.32-6.36-3.96-6.36Zm27.004 12.96 1.12-.12.08 3.24c-3.04.613-5.733.92-8.08.92-2.96 0-5.093-.813-6.4-2.44-1.28-1.627-1.92-4.227-1.92-7.8 0-7.093 2.894-10.64 8.68-10.64 5.6 0 8.4 3.053 8.4 9.16l-.28 3.12h-12.4c.027 1.653.387 2.867 1.08 3.64.694.773 1.987 1.16 3.88 1.16 1.894 0 3.84-.08 5.84-.24Zm-2.4-7.92c0-1.973-.32-3.347-.96-4.12-.613-.8-1.666-1.2-3.16-1.2-1.493 0-2.586.413-3.28 1.24-.666.827-1.013 2.187-1.04 4.08h8.44Zm8.473 11.52v-20h4.32v2.4c2.266-1.467 4.533-2.413 6.8-2.84v4.36c-2.294.453-4.254 1.04-5.88 1.76l-.88.36V125h-4.36Zm21.402 0 6.76-27.4h8.84l6.8 27.4h-4.48l-1.48-5.88h-10.52l-1.48 5.88h-4.44Zm10.2-23.68-3.4 13.88h8.76l-3.36-13.88h-2Zm13.478 3.68h4.28l3.16 16.28h.8l3.8-15.88h4.48l3.8 15.88h.8l3.12-16.28h4.32l-4.24 20h-6.92l-3.12-13.72-3.12 13.72h-6.92l-4.24-20Zm46.504 16.4 1.12-.12.08 3.24c-3.04.613-5.734.92-8.081.92-2.959 0-5.093-.813-6.399-2.44-1.28-1.627-1.92-4.227-1.92-7.8 0-7.093 2.893-10.64 8.68-10.64 5.6 0 8.4 3.053 8.4 9.16l-.28 3.12h-12.4c.026 1.653.386 2.867 1.08 3.64.693.773 1.986 1.16 3.88 1.16 1.893 0 3.84-.08 5.84-.24Zm-2.4-7.92c0-1.973-.32-3.347-.96-4.12-.614-.8-1.667-1.2-3.16-1.2-1.494 0-2.587.413-3.28 1.24-.667.827-1.014 2.187-1.04 4.08h8.44Zm22.352-4.36c-3.147-.427-5.427-.64-6.84-.64-1.413 0-2.4.173-2.96.52-.533.32-.8.84-.8 1.56 0 .72.293 1.227.88 1.52.613.293 2.027.64 4.24 1.04 2.24.373 3.827.973 4.76 1.8.933.827 1.4 2.293 1.4 4.4s-.68 3.653-2.04 4.64c-1.333.987-3.293 1.48-5.88 1.48-1.627 0-3.68-.227-6.16-.68l-1.24-.2.16-3.64c3.2.427 5.507.64 6.92.64 1.413 0 2.413-.173 3-.52.613-.347.92-.92.92-1.72 0-.8-.293-1.347-.88-1.64-.56-.32-1.933-.653-4.12-1-2.16-.373-3.747-.947-4.76-1.72s-1.52-2.187-1.52-4.24c0-2.053.693-3.587 2.08-4.6 1.413-1.013 3.213-1.52 5.4-1.52 1.707 0 3.8.213 6.28.64l1.24.24-.08 3.64Zm5.95-1.96c1.387-1.733 3.68-2.6 6.88-2.6 3.2 0 5.48.867 6.84 2.6 1.387 1.733 2.08 4.333 2.08 7.8 0 3.467-.667 6.08-2 7.84-1.333 1.76-3.64 2.64-6.92 2.64s-5.587-.88-6.92-2.64c-1.333-1.76-2-4.373-2-7.84 0-3.467.68-6.067 2.04-7.8Zm3.28 13c.613 1.067 1.813 1.6 3.6 1.6 1.787 0 2.987-.533 3.6-1.6.613-1.067.92-2.813.92-5.24s-.333-4.147-1-5.16c-.64-1.013-1.813-1.52-3.52-1.52s-2.893.507-3.56 1.52c-.64 1.013-.96 2.733-.96 5.16s.307 4.173.92 5.24Zm21.211 4.84h-4.36v-20h4.32v1.24c1.893-1.12 3.627-1.68 5.2-1.68 2.32 0 4.013.653 5.08 1.96 2.427-1.307 4.84-1.96 7.24-1.96 2.4 0 4.093.747 5.08 2.24.987 1.467 1.48 3.96 1.48 7.48V125h-4.32v-10.6c0-2.16-.227-3.693-.68-4.6-.427-.907-1.333-1.36-2.72-1.36-1.2 0-2.493.267-3.88.8l-.68.28c.213.533.32 2.24.32 5.12V125h-4.32v-10.28c0-2.373-.213-4.013-.64-4.92-.427-.907-1.36-1.36-2.8-1.36-1.333 0-2.573.267-3.72.8l-.6.24V125Zm43.396-3.6 1.12-.12.08 3.24c-3.04.613-5.734.92-8.08.92-2.96 0-5.094-.813-6.4-2.44-1.28-1.627-1.92-4.227-1.92-7.8 0-7.093 2.893-10.64 8.68-10.64 5.6 0 8.4 3.053 8.4 9.16l-.28 3.12h-12.4c.026 1.653.386 2.867 1.08 3.64.693.773 1.986 1.16 3.88 1.16 1.893 0 3.84-.08 5.84-.24Zm-2.4-7.92c0-1.973-.32-3.347-.96-4.12-.614-.8-1.667-1.2-3.16-1.2-1.494 0-2.587.413-3.28 1.24-.667.827-1.014 2.187-1.04 4.08h8.44Zm17.781-15.88h10.4c2.8 0 4.893.573 6.28 1.72 1.387 1.12 2.08 2.92 2.08 5.4 0 1.627-.267 2.907-.8 3.84-.507.933-1.32 1.707-2.44 2.32 2.613 1.013 3.92 3.133 3.92 6.36 0 5.173-2.907 7.76-8.72 7.76h-10.72V97.6Zm10.4 15.44h-5.96v8.12h6.04c1.467 0 2.56-.307 3.28-.92.747-.613 1.12-1.667 1.12-3.16s-.427-2.533-1.28-3.12c-.853-.613-1.92-.92-3.2-.92Zm-.24-11.6h-5.72v7.84h5.88c2.613 0 3.92-1.347 3.92-4.04 0-2.533-1.36-3.8-4.08-3.8Zm28.612 9.72v9.12c.027.587.174 1.027.44 1.32.294.267.734.44 1.32.52l-.12 3.32c-2.293 0-4.066-.493-5.32-1.48-2.133.987-4.28 1.48-6.44 1.48-3.973 0-5.96-2.12-5.96-6.36 0-2.027.534-3.493 1.6-4.4 1.094-.907 2.76-1.453 5-1.64l5.16-.44v-1.44c0-1.067-.24-1.813-.72-2.24-.453-.427-1.133-.64-2.04-.64-1.706 0-3.84.107-6.4.32l-1.28.08-.16-3.08c2.907-.693 5.574-1.04 8-1.04 2.454 0 4.214.533 5.28 1.6 1.094 1.04 1.64 2.707 1.64 5Zm-8.96 4.96c-1.84.16-2.76 1.16-2.76 3s.814 2.76 2.44 2.76c1.334 0 2.747-.213 4.24-.64l.72-.24v-5.32l-4.64.44Zm18.794 8.88h-4.36v-20h4.32v1.24c1.946-1.12 3.786-1.68 5.52-1.68 2.666 0 4.48.76 5.44 2.28.986 1.493 1.48 3.973 1.48 7.44V125h-4.32v-10.6c0-2.16-.24-3.693-.72-4.6-.454-.907-1.4-1.36-2.84-1.36-1.36 0-2.667.267-3.92.8l-.6.24V125Zm21.836 0h-4.36V96.68h4.36v16.36l2.48-.24 4.72-7.8h4.88l-5.76 9.36 6.08 10.64h-4.92l-4.88-8.44-2.6.28V125Z"/><defs><linearGradient id="a" x1="-.009" x2="555.232" y1="73.272" y2="73.272" gradientUnits="userSpaceOnUse"><stop stop-color="#008897"/><stop offset=".59" stop-color="#009E87"/><stop offset="1" stop-color="#00A880"/></linearGradient><linearGradient id="b" x1="5.585" x2="160.328" y1="510.734" y2="510.734" gradientUnits="userSpaceOnUse"><stop stop-color="#008897"/><stop offset=".59" stop-color="#009E87"/><stop offset="1" stop-color="#00A880"/></linearGradient><linearGradient id="c" x1="25.576" x2="160.355" y1="475.305" y2="475.305" gradientUnits="userSpaceOnUse"><stop stop-color="#008897"/><stop offset=".59" stop-color="#009E87"/><stop offset="1" stop-color="#00A880"/></linearGradient><linearGradient id="d" x1="401.23" x2="555.973" y1="510.734" y2="510.734" gradientUnits="userSpaceOnUse"><stop stop-color="#008897"/><stop offset=".59" stop-color="#009E87"/><stop offset="1" stop-color="#00A880"/></linearGradient><linearGradient id="e" x1="401.203" x2="535.982" y1="475.305" y2="475.305" gradientUnits="userSpaceOnUse"><stop stop-color="#008897"/><stop offset=".59" stop-color="#009E87"/><stop offset="1" stop-color="#00A880"/></linearGradient><linearGradient id="f" x1="175.355" x2="385.38" y1="493.02" y2="493.02" gradientUnits="userSpaceOnUse"><stop stop-color="#008897"/><stop offset=".59" stop-color="#009E87"/><stop offset="1" stop-color="#00A880"/></linearGradient><linearGradient id="g" x1="420.48" x2="482.235" y1="305.371" y2="305.371" gradientUnits="userSpaceOnUse"><stop stop-color="#FF7F0A"/><stop offset="1" stop-color="#D02801"/></linearGradient><linearGradient id="h" x1="73.044" x2="134.798" y1="305.782" y2="305.782" gradientUnits="userSpaceOnUse"><stop stop-color="#FF7F0A"/><stop offset="1" stop-color="#D02801"/></linearGradient><linearGradient id="i" x1="246.762" x2="308.517" y1="305.782" y2="305.782" gradientUnits="userSpaceOnUse"><stop stop-color="#FF7F0A"/><stop offset="1" stop-color="#D02801"/></linearGradient><filter id="j" width="380" height="125.474" x="88" y="252" color-interpolation-filters="sRGB" filterUnits="userSpaceOnUse"><feFlood flood-opacity="0" result="BackgroundImageFix"/><feColorMatrix in="SourceAlpha" result="hardAlpha" values="0 0 0 0 0 0 0 0 0 0 0 0 0 0 0 0 0 0 127 0"/><feOffset dy="4"/><feGaussianBlur stdDeviation="2"/><feComposite in2="hardAlpha" operator="out"/><feColorMatrix values="0 0 0 0 0 0 0 0 0 0 0 0 0 0 0 0 0 0 0.25 0"/><feBlend in2="BackgroundImageFix" result="effect1_dropShadow_100_51"/><feBlend in="SourceGraphic" in2="effect1_dropShadow_100_51" result="shape"/></filter></defs></svg>
