<svg xmlns="http://www.w3.org/2000/svg" width="250" height="250" fill="none" viewBox="0 0 250 250"><path fill="url(#a)" d="M173.205 187.523h-18.939l-1.422-4.83c-.447-1.513-1.987-4.685-1.623-6.216.483-2.051 2.844-3.928 4.248-5.396 3.919-4.101 7.838-8.294 10.681-13.124 3.163-5.368 5.988-13.471 10.026-18.228 3.29-3.874 5.095-2.361 8.203-6.38 5.359-6.927 4.493-21.072-1.431-26.996-1.085-1.085-2.169-1.623-3.792-2.169-10.827-50.328-47.083-49.253-53.582-49.253-6.498 0-43.3-.538-54.12 49.253-1.621.537-3.244 1.622-3.79 2.169-3.792 3.244-5.415 8.658-5.415 15.694 0 7.091 2.407 13.453 8.978 16.606 2.233 1.076 4.52 2.27 5.915 4.384 2.68 4.092 3.564 9.05 6.097 13.216 3.354 5.514 5.815 9.405 9.98 14.455.702.856 2.762 2.962 3.646 3.645.756.583 1.941 1.568 2.342 2.452.174.383.055.82-.064 1.221-.938 3.163-1.868 6.325-2.807 9.497H77.397c-16.779 0-30.304 13.535-30.304 30.304v3.437c3.217 2.816 6.88 5.167 10.709 7.154 6.863 3.573 14.2 6.088 21.5 8.604 3.418 1.176 6.845 2.342 10.217 3.636 2.041.784 4.02 1.723 6.07 2.479 1.896.702 3.846 1.267 5.806 1.75h53.153c9.05-3.445 18.319-6.407 27.051-10.654 4.083-1.987 8.011-4.384 11.602-7.173 3.172-2.461 5.833-5.295 8.23-8.522.674-.902 1.34-1.832 2.005-2.761-1.048-15.813-14.145-28.263-30.231-28.263v.009Zm-88.207-51.677c0-2.597-2.597-4.685-5.204-5.204-3.117-.52-5.724-.52-5.724-7.802 0-5.723 1.559-7.801 2.079-8.84 0 0 .52-.52 1.039-.52.52 1.559 1.558 3.117 3.645 3.646 2.598.519 4.685-1.039 5.204-3.646.52-4.165 2.078-8.321 3.117-11.447 7.283.519 18.73-1.559 30.697-7.282 5.723-2.598 11.447-6.244 15.612-9.37 1.559 1.559 3.646 3.646 5.724 5.204 7.282 6.244 15.612 9.889 21.336 10.928 1.558 3.646 2.597 7.802 3.117 11.967.519 2.078 2.078 3.646 4.165 3.646h.52c2.078-.52 3.117-1.559 3.645-3.646.52 0 .52.52 1.039.52 1.039.519 2.078 2.597 2.078 8.84 0 7.282-2.597 7.802-5.723 7.802-2.598 0-4.685 2.597-5.205 5.204-1.039 11.447-8.321 21.856-21.336 31.216-11.447 8.321-27.579 8.321-39.017 0-12.486-9.369-19.769-20.288-20.808-31.216Zm57.747 64.619-12.34 9.123c-2.68 2.142-6.972 2.142-9.661 0l-12.341-9.123c-2.679-2.151-3.755-5.368-3.217-8.585l3.217-11.803c5.369 2.142 11.265 3.755 17.171 3.755 5.906 0 11.803-1.076 17.171-3.755l3.218 11.803c.537 3.217-.529 6.434-3.218 8.585Z"/><path fill="#009D88" d="M125 250C56.07 250 0 193.921 0 125 0 56.08 56.08 0 125 0c68.921 0 125 56.08 125 125 0 68.921-56.079 125-125 125Zm0-232.957C65.476 17.043 17.043 65.476 17.043 125c0 59.524 48.433 107.957 107.957 107.957 59.524 0 107.957-48.433 107.957-107.957 0-59.524-48.433-107.957-107.957-107.957Z"/><path fill="url(#b)" d="M125.592 66.806c13.339 0 24.153-8.365 24.153-18.684 0-10.318-10.814-18.683-24.153-18.683-13.339 0-24.152 8.365-24.152 18.683 0 10.32 10.813 18.684 24.152 18.684Z"/><defs><linearGradient id="a" x1="47.111" x2="203.445" y1="149.909" y2="149.909" gradientUnits="userSpaceOnUse"><stop stop-color="#FF7F0A"/><stop offset="1" stop-color="#D02801"/></linearGradient><linearGradient id="b" x1="101.44" x2="149.745" y1="48.122" y2="48.122" gradientUnits="userSpaceOnUse"><stop stop-color="#FF7F0A"/><stop offset="1" stop-color="#D02801"/></linearGradient></defs></svg>
