<svg xmlns="http://www.w3.org/2000/svg" fill="none" viewBox="0 0 242 250">
  <path fill="url(#paint0_linear_24_2)" d="M236.655 83.117H5.181C2.318 83.117 0 85.52 0 88.486v64.49c0 2.965 2.318 5.368 5.181 5.368h231.474c2.864 0 5.181-2.403 5.181-5.368v-64.49c0-2.966-2.317-5.369-5.181-5.369Z"/>
  <path fill="url(#paint1_linear_24_2)" d="M236.655 0H5.181C2.318 0 0 2.403 0 5.368v64.49c0 2.966 2.318 5.369 5.181 5.369h231.474c2.864 0 5.181-2.403 5.181-5.369V5.368c0-2.965-2.317-5.368-5.181-5.368Z"/>
  <path fill="url(#paint2_linear_24_2)" d="M236.655 166.252H5.181c-2.863 0-5.181 2.403-5.181 5.368v64.49c0 2.966 2.318 5.369 5.181 5.369h29.978v5.828A2.688 2.688 0 0 0 37.852 250h40.306a2.688 2.688 0 0 0 2.693-2.693v-5.828h80.169v5.828a2.688 2.688 0 0 0 2.693 2.693h40.306a2.687 2.687 0 0 0 2.692-2.693v-5.828h29.979c2.863 0 5.181-2.403 5.181-5.369v-64.49c0-2.965-2.318-5.368-5.181-5.368h-.035Z"/>
  <path fill="#fff" d="M41.482 132.388c-6.425 0-11.64-5.215-11.64-11.64 0-6.425 5.215-11.64 11.64-11.64 6.425 0 11.64 5.215 11.64 11.64 0 6.425-5.215 11.64-11.64 11.64ZM85.367 132.388c-6.425 0-11.64-5.215-11.64-11.64 0-6.425 5.215-11.64 11.64-11.64 6.425 0 11.64 5.215 11.64 11.64 0 6.425-5.215 11.64-11.64 11.64ZM215.693 109.329h-51.946a2.693 2.693 0 0 0-2.693 2.693v17.451a2.692 2.692 0 0 0 2.693 2.693h51.946a2.693 2.693 0 0 0 2.693-2.693v-17.451a2.693 2.693 0 0 0-2.693-2.693ZM41.482 49.27c-6.425 0-11.64-5.215-11.64-11.64 0-6.425 5.215-11.64 11.64-11.64 6.425 0 11.64 5.215 11.64 11.64 0 6.425-5.215 11.64-11.64 11.64ZM85.367 49.27c-6.425 0-11.64-5.215-11.64-11.64 0-6.425 5.215-11.64 11.64-11.64 6.425 0 11.64 5.215 11.64 11.64 0 6.425-5.215 11.64-11.64 11.64ZM215.693 26.195h-51.946a2.692 2.692 0 0 0-2.693 2.692V46.34a2.692 2.692 0 0 0 2.693 2.693h51.946a2.693 2.693 0 0 0 2.693-2.693V28.887a2.693 2.693 0 0 0-2.693-2.692ZM41.482 215.523c-6.425 0-11.64-5.216-11.64-11.641s5.215-11.64 11.64-11.64c6.425 0 11.64 5.215 11.64 11.64 0 6.425-5.215 11.641-11.64 11.641ZM85.367 215.523c-6.425 0-11.64-5.216-11.64-11.641s5.215-11.64 11.64-11.64c6.425 0 11.64 5.215 11.64 11.64 0 6.425-5.215 11.641-11.64 11.641ZM215.693 192.446h-51.946a2.693 2.693 0 0 0-2.693 2.693v17.452a2.693 2.693 0 0 0 2.693 2.693h51.946a2.693 2.693 0 0 0 2.693-2.693v-17.452a2.693 2.693 0 0 0-2.693-2.693Z"/>
  <defs>
    <linearGradient id="paint0_linear_24_2" x1="-.017" x2="241.836" y1="120.748" y2="120.748" gradientUnits="userSpaceOnUse">
      <stop stop-color="#D02801"/>
      <stop offset="1" stop-color="#FF7F0A"/>
    </linearGradient>
    <linearGradient id="paint1_linear_24_2" x1="-.017" x2="241.836" y1="37.613" y2="37.613" gradientUnits="userSpaceOnUse">
      <stop stop-color="#008897"/>
      <stop offset=".59" stop-color="#009E87"/>
      <stop offset="1" stop-color="#00A880"/>
    </linearGradient>
    <linearGradient id="paint2_linear_24_2" x1="-.017" x2="241.836" y1="208.126" y2="208.126" gradientUnits="userSpaceOnUse">
      <stop stop-color="#008897"/>
      <stop offset=".59" stop-color="#009E87"/>
      <stop offset="1" stop-color="#00A880"/>
    </linearGradient>
  </defs>
</svg>
