<svg fill="none" xmlns="http://www.w3.org/2000/svg" viewBox="0 0 250 232"><path d="m63.542 70.852 90.567-49.216 12.731-6.919c6.187-3.37 14.099-1.237 17.485 4.69l29.321 51.445" fill="url(#a)"/><path d="M119.432 4.77 51.169 77.87l108.557-59.44-19.618-15.222c-6.219-4.819-15.368-4.135-20.676 1.563Z" fill="url(#b)"/><path d="M235.738 70.852H14.262C6.385 70.852 0 77.237 0 85.113v132.099c0 7.876 6.385 14.261 14.261 14.261h221.477c7.877 0 14.262-6.385 14.262-14.261V85.113c0-7.876-6.385-14.261-14.262-14.261Z" fill="url(#c)"/><g filter="url(#d)"><path d="M17 128.577C17 122.183 22.183 117 28.577 117h192.175c6.393 0 11.576 5.183 11.576 11.577v44.845c0 6.393-5.183 11.576-11.576 11.576H28.577c-6.394 0-11.577-5.183-11.577-11.576v-44.845Z" fill="#fff"/></g><path d="M80.227 150.28c0 2.82-.45 4.861-1.348 6.125-.9 1.265-2.534 1.897-4.902 1.897-2.37 0-4.004-.647-4.903-1.943-.898-1.294-1.348-3.333-1.348-6.113 0-2.781.457-4.846 1.372-6.194.913-1.349 2.537-2.023 4.868-2.023 2.332 0 3.957.67 4.88 2.011.921 1.342 1.381 3.422 1.381 6.24Zm-10.696-.046c0 2.317.305 3.981.914 4.995.61 1.013 1.786 1.519 3.532 1.519 1.744 0 2.917-.495 3.52-1.486.602-.99.903-2.651.903-4.983 0-2.331-.313-4.03-.937-5.097-.625-1.066-1.794-1.6-3.508-1.6-1.715 0-2.88.53-3.497 1.589-.619 1.06-.927 2.748-.927 5.063ZM83.153 163.149v-16.503h1.691v.823c1.158-.701 2.3-1.051 3.429-1.051 1.448 0 2.499.461 3.154 1.383.655.922.983 2.442.983 4.559 0 2.118-.385 3.638-1.154 4.56-.77.922-2.045 1.383-3.828 1.383-.93 0-1.782-.084-2.56-.252v5.098h-1.715Zm4.867-15.2c-.457 0-.948.076-1.474.228-.526.152-.942.305-1.246.457l-.434.228v7.702c1.082.168 1.905.252 2.469.252 1.234 0 2.098-.351 2.595-1.051.494-.7.742-1.844.742-3.429 0-1.584-.224-2.712-.673-3.383-.451-.669-1.11-1.004-1.979-1.004ZM102.968 156.657l.664-.068.046 1.348c-1.738.244-3.223.366-4.457.366-1.645 0-2.812-.476-3.497-1.428s-1.029-2.434-1.029-4.445c0-4.007 1.592-6.011 4.778-6.011 1.539 0 2.689.43 3.45 1.291.762.861 1.144 2.214 1.144 4.056l-.094 1.303H96.43c0 1.264.229 2.202.685 2.811.457.61 1.253.914 2.389.914s2.291-.045 3.464-.137Zm-.617-4.96c0-1.402-.225-2.392-.674-2.971-.45-.579-1.181-.868-2.194-.868-1.014 0-1.776.304-2.286.913s-.774 1.586-.788 2.926h5.942ZM108.453 158.074h-1.715v-11.428h1.692v.799c1.234-.685 2.414-1.029 3.543-1.029 1.524 0 2.548.412 3.074 1.235.526.822.788 2.285.788 4.388v6.034h-1.691v-5.987c0-1.584-.157-2.671-.468-3.257-.313-.586-.98-.881-2-.881a5.99 5.99 0 0 0-1.542.217c-.541.146-.957.287-1.246.424l-.434.205v9.28h-.001ZM130.12 152.749h-4.023v5.326h-1.76v-15.817h5.783c1.721 0 2.993.418 3.816 1.257s1.234 2.118 1.234 3.84c0 3.596-1.684 5.394-5.05 5.394Zm-4.023-1.554h4c2.179 0 3.268-1.279 3.268-3.839 0-1.218-.26-2.115-.778-2.686-.518-.571-1.348-.857-2.49-.857h-4v7.382ZM145.546 150.098v5.852c.047.564.487.898 1.326 1.006l-.068 1.348c-1.204 0-2.11-.304-2.72-.913-1.372.609-2.743.913-4.114.913-1.051 0-1.852-.297-2.4-.892-.548-.594-.823-1.447-.823-2.56 0-1.112.282-1.931.846-2.457.563-.526 1.447-.849 2.651-.971l3.588-.343v-.983c0-.778-.168-1.334-.503-1.668-.336-.335-.793-.503-1.372-.503-1.219 0-2.484.076-3.794.228l-.709.068-.068-1.302c1.677-.335 3.162-.503 4.457-.503s2.236.297 2.823.892c.586.594.88 1.524.88 2.788Zm-7.039 4.662c0 1.402.579 2.103 1.737 2.103a9.237 9.237 0 0 0 3.063-.526l.526-.182v-3.772l-3.382.32c-.686.061-1.182.26-1.486.594-.306.336-.458.823-.458 1.463ZM147.741 146.646h1.714l2.856 9.943h.755l2.88-9.943h1.714l-4.754 16.503h-1.715l1.486-5.074h-1.691l-3.245-11.429ZM161.567 158.075h-1.714v-11.429h1.691v.8c1.144-.686 2.255-1.029 3.337-1.029 1.417 0 2.408.388 2.971 1.165.503-.305 1.153-.575 1.954-.811.799-.237 1.504-.354 2.115-.354 1.524 0 2.548.408 3.074 1.222.526.816.788 2.282.788 4.401v6.033h-1.714v-5.987c0-1.584-.152-2.671-.457-3.257-.305-.586-.953-.88-1.943-.88-.503 0-1.021.072-1.554.217-.533.145-.945.286-1.234.423l-.434.205c.197.503.298 1.615.298 3.337v5.942h-1.715v-5.896c0-1.645-.149-2.762-.445-3.348-.298-.586-.949-.88-1.955-.88-.488 0-.986.072-1.497.217-.511.145-.903.286-1.177.423l-.389.205v9.281ZM186.731 156.657l.664-.068.046 1.348c-1.738.244-3.223.366-4.457.366-1.645 0-2.812-.476-3.497-1.428s-1.029-2.434-1.029-4.445c0-4.007 1.592-6.011 4.778-6.011 1.539 0 2.689.43 3.451 1.291s1.144 2.214 1.144 4.056l-.091 1.303h-7.543c0 1.264.228 2.202.685 2.811.457.61 1.253.914 2.388.914 1.134 0 2.288-.045 3.461-.137Zm-.617-4.96c0-1.402-.225-2.392-.674-2.971-.45-.579-1.181-.868-2.194-.868s-1.776.304-2.286.913c-.511.609-.774 1.586-.788 2.926h5.942ZM192.217 158.075h-1.715v-11.429h1.692v.8c1.234-.686 2.414-1.029 3.543-1.029 1.524 0 2.548.411 3.074 1.234.526.823.788 2.285.788 4.389v6.033h-1.691v-5.987c0-1.584-.157-2.671-.468-3.257-.313-.586-.98-.88-2-.88-.488 0-1.002.072-1.542.217-.541.145-.957.286-1.246.423l-.434.205v9.281h-.001ZM208.627 148.132h-3.635v5.463c0 1.311.095 2.171.287 2.583.19.412.643.617 1.36.617l2.034-.137.114 1.417c-1.021.167-1.798.251-2.332.251-1.188 0-2.011-.289-2.469-.868-.456-.58-.685-1.684-.685-3.315v-6.011h-1.623v-1.486h1.623v-3.497h1.691v3.497h3.635v1.486ZM214.318 147.949c-1.662 0-2.491.579-2.491 1.737 0 .533.19.91.571 1.132.381.221 1.249.45 2.605.685 1.355.237 2.315.568 2.88.995.563.427.845 1.226.845 2.399 0 1.174-.377 2.034-1.132 2.584-.754.548-1.855.822-3.303.822-.945 0-2.057-.107-3.336-.319l-.685-.115.091-1.486c1.737.26 3.047.389 3.932.389.883 0 1.557-.141 2.022-.423.465-.282.697-.755.697-1.417s-.199-1.112-.594-1.349c-.397-.236-1.265-.46-2.605-.673-1.341-.214-2.294-.526-2.857-.937-.564-.412-.846-1.173-.846-2.286 0-1.112.393-1.934 1.177-2.469.785-.533 1.764-.799 2.937-.799.929 0 2.096.107 3.497.32l.641.114-.047 1.463c-1.691-.245-3.025-.367-3.999-.367Z" fill="#222"/><path fill-rule="evenodd" clip-rule="evenodd" d="M59.53 149.447c-.55-5.171-3.818-9.532-8.348-11.624h-4.23l-.904 5.546c3.844.962 5.918 3.089 6.819 6.907l6.663-.829Z" fill="#FFA6B2"/><path fill-rule="evenodd" clip-rule="evenodd" d="m38.432 163.881 1.408-8.081c-.44-.402-2.252 1.608-2.613 1.134h-3.475v3.094a14.562 14.562 0 0 0 4.68 3.853Z" fill="#B3EDDF"/><path fill-rule="evenodd" clip-rule="evenodd" d="m59.54 149.547-7.548-.376c.067.464 0 1.897 0 2.378 0 1.456.116 2.162-.451 3.406l2.505 1.979h4.3A14.445 14.445 0 0 0 59.612 151c0-.49-.025-.975-.072-1.453Z" fill="#FFB985"/><path fill-rule="evenodd" clip-rule="evenodd" d="M55.89 147.852a2.415 2.415 0 0 0-2.414 2.415v.34a2.415 2.415 0 0 0 4.83 0v-.34a2.414 2.414 0 0 0-2.415-2.415Z" fill="#FFCBA9"/><path fill-rule="evenodd" clip-rule="evenodd" d="M58.947 155.358c-1.85 5.881-7.347 10.147-13.84 10.147a14.64 14.64 0 0 1-1.75-.105l.84-6.923c.557.098 1.639.25 2.179.027 2.86-1.181 3.176-1.63 5.485-3.858l7.085.712Z" fill="#68C180"/><path fill-rule="evenodd" clip-rule="evenodd" d="M35.755 154.767c.133.122.262.247.386.377-.058-.124-.114-.25-.168-.377h-.219.001Zm6.716 5.887c0 1.562-.301 3.057-.85 4.43a14.412 14.412 0 0 1-3.794-1.535c-.143-.083.16-1.001.196-1.15.474-1.96 1.043-3.965 1.157-5.987.014-.237.078-.78-.1-.978 1.245 1.383 2.588 1.989 4.435 2.493 0 .059-1.044 2.668-1.044 2.727Z" fill="#2E9C86"/><path fill-rule="evenodd" clip-rule="evenodd" d="M31.596 156.294h3.289v-8.423h-3.948a14.544 14.544 0 0 0-.337 3.128c0 1.869.352 3.654.996 5.295Z" fill="#98E1D0"/><path fill-rule="evenodd" clip-rule="evenodd" d="M31.463 155.942a7.723 7.723 0 0 0 3.176-6.248 7.712 7.712 0 0 0-2.33-5.532 14.57 14.57 0 0 1 3.453-4.258c1.14 1.033 4.474 3.449 5.199 4.822-2.067 1.807-3.51 3.772-3.215 6.719.226 2.268.243 2.541 1.544 4.357-.857 1.759-3.72 3.974-5.015 4.848a14.496 14.496 0 0 1-2.811-4.707l-.001-.001Z" fill="#56B7B5"/><path fill-rule="evenodd" clip-rule="evenodd" d="M45.574 136.5a14.545 14.545 0 0 0-.468-.007c-5.385 0-10.085 2.933-12.587 7.29h5.8a9.823 9.823 0 0 1 7.256-2.665v-4.619l-.001.001Z" fill="#8075B3"/><path fill-rule="evenodd" clip-rule="evenodd" d="M43.99 165.462c.015-1.682 1.415-5.842 2.175-7.22-.044 0-.45.521-.495.521-1.056 0-2.023-.083-2.977-.391-.624 1.404-1.653 4.917-1.733 6.532.97.289 1.986.479 3.03.559v-.001Zm15.318-11.478-.004-.003-.014-.006-.029-.013-.058-.027-.123-.054-.132-.053a8.14 8.14 0 0 0-.14-.055 5.754 5.754 0 0 0-.304-.112 6.172 6.172 0 0 0-.163-.057l-.169-.057-.175-.057-.18-.058-.187-.058-.19-.057-.194-.057a8.622 8.622 0 0 1-.199-.057l-.2-.056-.204-.056-.206-.055a12.318 12.318 0 0 0-.207-.053l-.209-.053-.208-.052-.21-.051-.208-.05-.208-.048-.206-.046a8.506 8.506 0 0 0-.204-.045l-.203-.043-.199-.041-.195-.039a15.73 15.73 0 0 0-.38-.071l-.183-.033a15.054 15.054 0 0 0-.348-.057l-.164-.024c-.055-.008-.106-.016-.158-.022l-.15-.018-.144-.015-.134-.012-.055-.004c-.195 1.074-.41 2.258-.923 3.18.538-.004 1.079.12 1.61.198a32.764 32.764 0 0 1 5.237 1.209c.036.011.26-.593.281-.65.149-.366.264-.744.37-1.123.013 0 .066-.233.073-.26.024-.093.049-.184.072-.277.024-.097.044-.196.066-.295.002-.019.008-.038.013-.057l.015-.06.028-.116c.002-.008.005-.015.002-.02v-.004Z" fill="#549458"/><path fill-rule="evenodd" clip-rule="evenodd" d="M59.505 149.226a3.815 3.815 0 0 0-3.378-2.593c-1.502-.093-2.924.733-3.62 1.958.23 1.171.384 2.356.307 3.604-.01.148-.05.258-.063.405.643.908 1.706 1.566 2.903 1.641a3.811 3.811 0 0 0 3.958-2.977 21.161 21.161 0 0 0-.106-2.038Zm-1.232 1.36a2.386 2.386 0 1 1-4.766-.298 2.386 2.386 0 0 1 4.767.299l-.001-.001Z" fill="#FF9852"/><path fill-rule="evenodd" clip-rule="evenodd" d="M32.622 143.606a20 20 0 0 0 12.354-7.112h.13c2.004 0 3.913.407 5.65 1.141-.893 1.373-2.901 4.667-4.035 5.839-.84-.231-1.446.014-2.34.202-4.016.846-4.252 2.204-6.325 4.96-1.555.381-5.69.456-7.342.535a14.405 14.405 0 0 1 1.908-5.565Z" fill="#825282"/><path fill-rule="evenodd" clip-rule="evenodd" d="M58.415 145.216a11.51 11.51 0 0 1-11.501-8.617c5.488.683 9.631 4.311 11.501 8.617Z" fill="#FF7A7F"/><path d="M45.176 158.78a7.73 7.73 0 1 0 0-15.461 7.73 7.73 0 0 0 0 15.461Z" fill="#fff"/><defs><linearGradient id="a" x1="63.542" y1="41.971" x2="213.662" y2="41.971" gradientUnits="userSpaceOnUse"><stop stop-color="#D02801"/><stop offset="1" stop-color="#FF7F0A"/></linearGradient><linearGradient id="b" x1="51.169" y1="38.926" x2="159.726" y2="38.926" gradientUnits="userSpaceOnUse"><stop stop-color="#008897"/><stop offset=".59" stop-color="#009E87"/><stop offset="1" stop-color="#00A880"/></linearGradient><linearGradient id="c" x1="0" y1="151.162" x2="250" y2="151.162" gradientUnits="userSpaceOnUse"><stop stop-color="#008897"/><stop offset=".59" stop-color="#009E87"/><stop offset="1" stop-color="#00A880"/></linearGradient><filter id="d" x="13" y="117" width="223.328" height="75.998" filterUnits="userSpaceOnUse" color-interpolation-filters="sRGB"><feFlood flood-opacity="0" result="BackgroundImageFix"/><feColorMatrix in="SourceAlpha" values="0 0 0 0 0 0 0 0 0 0 0 0 0 0 0 0 0 0 127 0" result="hardAlpha"/><feOffset dy="4"/><feGaussianBlur stdDeviation="2"/><feComposite in2="hardAlpha" operator="out"/><feColorMatrix values="0 0 0 0 0 0 0 0 0 0 0 0 0 0 0 0 0 0 0.25 0"/><feBlend in2="BackgroundImageFix" result="effect1_dropShadow_26_50"/><feBlend in="SourceGraphic" in2="effect1_dropShadow_26_50" result="shape"/></filter></defs></svg>
