<svg fill="none" xmlns="http://www.w3.org/2000/svg" viewBox="0 0 496 58"><path d="M496 29 446 .132v57.735L496 29ZM12.4 34a5 5 0 0 0 0-10v10Zm24.8-10a5 5 0 0 0 0 10V24ZM62 34a5 5 0 0 0 0-10v10Zm24.8-10a5 5 0 0 0 0 10V24Zm24.8 10a5 5 0 0 0 0-10v10Zm24.8-10a5 5 0 0 0 0 10V24Zm24.8 10a5 5 0 0 0 0-10v10ZM186 24a5 5 0 0 0 0 10V24Zm24.8 10a5 5 0 0 0 0-10v10Zm24.8-10a5 5 0 0 0 0 10V24Zm24.8 10a5 5 0 0 0 0-10v10Zm24.8-10a5 5 0 0 0 0 10V24ZM310 34a5 5 0 0 0 0-10v10Zm24.8-10a5 5 0 0 0 0 10V24Zm24.8 10a5 5 0 0 0 0-10v10Zm24.8-10a5 5 0 0 0 0 10V24Zm24.8 10a5 5 0 0 0 0-10v10ZM434 24a5 5 0 1 0 0 10V24Zm24.8 10a5 5 0 0 0 0-10v10Zm24.8-10a5 5 0 1 0 0 10V24ZM0 34h12.4V24H0v10Zm37.2 0H62V24H37.2v10Zm49.6 0h24.8V24H86.8v10Zm49.6 0h24.8V24h-24.8v10Zm49.6 0h24.8V24H186v10Zm49.6 0h24.8V24h-24.8v10Zm49.6 0H310V24h-24.8v10Zm49.6 0h24.8V24h-24.8v10Zm49.6 0h24.8V24h-24.8v10Zm49.6 0h24.8V24H434v10Z" fill="#000"/></svg>