<svg xmlns="http://www.w3.org/2000/svg" fill="none" viewBox="0 0 1050 290"><path fill="#222" d="M352.709 152.869V45.921h11.9v106.948h-11.9ZM400.308 152.869h-11.592V75.6h11.433v5.413c8.344-4.638 16.333-6.953 23.958-6.953 10.304 0 17.229 2.781 20.785 8.344 3.556 5.562 5.329 15.456 5.329 29.67v40.804h-11.433v-40.487c0-10.714-1.054-18.06-3.164-22.026-2.118-3.967-6.626-5.945-13.523-5.945-3.304 0-6.776.495-10.435 1.465-3.658.98-6.467 1.932-8.418 2.865l-2.94 1.391v62.746-.018ZM511.279 85.642h-24.574v36.941c0 8.857.644 14.681 1.932 17.462 1.288 2.781 4.349 4.172 9.193 4.172l13.757-.924.774 9.585c-6.906 1.129-12.161 1.699-15.763 1.699-8.036 0-13.599-1.96-16.688-5.871-3.089-3.91-4.638-11.386-4.638-22.409V85.652h-10.976V75.609h10.976V51.96h11.433v23.65h24.574v10.043-.01ZM578.038 143.284l4.48-.467.308 9.118c-11.741 1.652-21.793 2.474-30.137 2.474-11.125 0-19.011-3.22-23.65-9.66-4.638-6.44-6.953-16.464-6.953-30.062 0-27.094 10.761-40.646 32.302-40.646 10.406 0 18.181 2.912 23.333 8.727 5.152 5.824 7.728 14.97 7.728 27.43l-.616 8.81h-51.006c0 8.549 1.55 14.887 4.639 19.012 3.089 4.125 8.474 6.178 16.146 6.178 7.672 0 15.474-.308 23.417-.924l.009.01Zm-4.172-33.534c0-9.473-1.521-16.174-4.554-20.085-3.043-3.91-7.99-5.87-14.84-5.87-6.851 0-12.002 2.062-15.456 6.178-3.453 4.125-5.226 10.714-5.329 19.786h40.179v-.009ZM603.536 152.869V75.6h11.433v10.51c8.96-6.18 18.396-10.249 28.28-12.209v11.742c-4.331.83-8.839 2.109-13.524 3.863-4.695 1.755-8.269 3.304-10.743 4.639l-3.863 2.007v56.717h-11.592.009ZM657.939 152.869V41.908h11.592v110.961h-11.592ZM745.25 143.284l4.48-.467.308 9.118c-11.741 1.652-21.793 2.474-30.137 2.474-11.125 0-19.011-3.22-23.65-9.66-4.639-6.44-6.953-16.464-6.953-30.062 0-27.094 10.761-40.646 32.302-40.646 10.406 0 18.181 2.912 23.332 8.727 5.152 5.824 7.728 14.97 7.728 27.43l-.616 8.81h-51.005c0 8.549 1.549 14.887 4.638 19.012 3.09 4.125 8.475 6.178 16.147 6.178 7.671 0 15.474-.308 23.416-.924l.01.01Zm-4.172-33.534c0-9.473-1.521-16.174-4.555-20.085-3.042-3.91-7.989-5.87-14.839-5.87-6.851 0-12.003 2.062-15.456 6.178-3.453 4.125-5.226 10.714-5.329 19.786h40.179v-.009ZM830.097 41.908v110.961h-11.433v-5.255c-7.933 4.536-15.763 6.804-23.491 6.804-4.125 0-7.728-.513-10.817-1.54-3.09-1.026-5.973-2.884-8.652-5.562-5.563-5.563-8.344-15.839-8.344-30.837s2.501-25.806 7.495-32.451c4.993-6.645 13.262-9.968 24.807-9.968 5.973 0 12.31.672 19.011 2.007v-34.16h11.434-.01Zm-40.179 101.068c1.857.728 4.247 1.082 7.187 1.082 2.94 0 6.234-.485 9.893-1.465 3.658-.98 6.514-1.932 8.577-2.856l3.089-1.39V85.96c-6.598-1.241-12.721-1.857-18.395-1.857-7.831 0-13.291 2.5-16.38 7.494-3.089 5.003-4.639 12.749-4.639 23.258 0 11.956 1.802 19.992 5.414 24.108 1.652 1.959 3.397 3.294 5.254 4.022v-.009ZM882.335 189.184c-12.367 0-20.99-1.68-25.89-5.021-4.9-3.351-7.345-9.455-7.345-18.312 0-4.228.924-7.653 2.781-10.276 1.857-2.632 4.993-5.59 9.426-8.885-2.884-1.95-4.33-5.506-4.33-10.658 0-1.755 1.288-5.003 3.864-9.735l1.39-2.473c-8.138-3.714-12.207-11.489-12.207-23.333 0-17.62 9.631-26.43 28.904-26.43 4.947 0 9.529.512 13.757 1.548l2.315.467 22.875-.616v9.893l-14.681-.308c3.397 3.397 5.105 8.55 5.105 15.456 0 9.687-2.398 16.454-7.186 20.318-4.788 3.864-12.338 5.796-22.642 5.796-2.781 0-5.311-.206-7.569-.616-1.858 4.536-2.782 7.476-2.782 8.81 0 3.192.98 5.18 2.94 5.945 1.96.775 7.887 1.158 17.771 1.158 9.883 0 16.995 1.54 21.326 4.638 4.33 3.099 6.496 9.119 6.496 18.078 0 16.38-11.433 24.575-34.309 24.575l-.009-.019Zm-21.793-24.266c0 5.46 1.521 9.249 4.554 11.358 3.043 2.109 8.652 3.164 16.847 3.164 8.194 0 14.065-1.129 17.621-3.397 3.556-2.268 5.329-6.057 5.329-11.359 0-5.301-1.288-8.726-3.864-10.275-2.576-1.54-7.625-2.315-15.148-2.315l-16.697-.775c-3.397 2.474-5.693 4.639-6.878 6.487-1.185 1.857-1.773 4.219-1.773 7.112h.009Zm1.083-64.445c0 6.076 1.362 10.406 4.097 12.982 2.725 2.576 7.233 3.864 13.524 3.864 6.29 0 10.761-1.288 13.448-3.864 2.679-2.576 4.023-6.925 4.023-13.057 0-6.132-1.344-10.481-4.023-13.057-2.678-2.576-7.158-3.864-13.448-3.864-6.291 0-10.799 1.316-13.524 3.939-2.735 2.632-4.097 6.98-4.097 13.057ZM984.485 143.284l4.48-.467.308 9.118c-11.741 1.652-21.792 2.474-30.136 2.474-11.125 0-19.012-3.22-23.65-9.66-4.639-6.44-6.954-16.464-6.954-30.062 0-27.094 10.761-40.646 32.302-40.646 10.407 0 18.181 2.912 23.333 8.727 5.152 5.824 7.728 14.97 7.728 27.43l-.616 8.81h-51.006c0 8.549 1.55 14.887 4.639 19.012 3.089 4.125 8.474 6.178 16.146 6.178 7.672 0 15.475-.308 23.417-.924l.009.01Zm-4.172-33.534c0-9.473-1.521-16.174-4.554-20.085-3.043-3.91-7.989-5.87-14.84-5.87-6.85 0-12.002 2.062-15.455 6.178-3.454 4.125-5.227 10.714-5.33 19.786h40.179v-.009ZM1009.98 152.869V75.6h11.44v10.51c8.96-6.18 18.39-10.249 28.28-12.209v11.742c-4.33.83-8.84 2.109-13.53 3.863-4.69 1.755-8.27 3.304-10.74 4.639l-3.86 2.007v56.717h-11.6.01ZM382.836 202.428h-25.227v13.187h23.006v7.672h-23.006v15.148h-8.941V194.7h34.168v7.737-.009ZM412.814 239.191c-15.595 0-25.162-8.745-25.162-22.633s9.632-22.633 25.228-22.633c15.595 0 25.227 8.745 25.227 22.633s-9.697 22.633-25.293 22.633Zm.066-37.398c-9.763 0-16.1 5.647-16.1 14.709 0 9.063 6.337 14.644 16.165 14.644s15.969-5.647 15.969-14.644-6.272-14.709-16.034-14.709ZM491.035 216.689c0 13.878-6.907 22.502-22.372 22.502s-21.867-7.793-21.867-22.502V194.69h8.941v21.999c0 9.697 4.312 14.457 13.505 14.457 9.193 0 13.057-4.882 13.057-14.457V194.69h8.745v21.999h-.009ZM545.54 238.425h-8.997l-25.544-30.174h-.131v30.174h-8.941V194.69h8.997l25.545 30.174h.13V194.69h8.941v43.735ZM575.901 238.425h-19.208V194.69h19.208c19.142 0 27.887 7.159 27.887 21.551 0 14.391-8.624 22.184-27.887 22.184Zm-.504-36.007h-9.763v28.14h9.763c13.692 0 19.207-5.199 19.207-14.261 0-9.063-5.263-13.879-19.207-13.879ZM655.26 238.425h-9.762l-5.068-11.853h-19.777l-4.946 11.853h-9.567l19.712-43.735h9.762l19.646 43.735Zm-24.658-35.372h-.13l-7.159 17.117h14.578l-7.289-17.117ZM697.978 202.428H679.47v36.007h-8.941v-36.007h-18.442v-7.738h45.891v7.738ZM714.264 238.425h-8.941V194.69h8.941v43.735ZM748.936 239.191c-15.595 0-25.162-8.745-25.162-22.633s9.632-22.633 25.228-22.633c15.595 0 25.227 8.745 25.227 22.633s-9.697 22.633-25.293 22.633Zm.066-37.398c-9.763 0-16.1 5.647-16.1 14.709 0 9.063 6.337 14.644 16.165 14.644s15.969-5.647 15.969-14.644-6.272-14.709-16.034-14.709ZM826.775 238.425h-8.997l-25.545-30.174h-.131v30.174h-8.941V194.69h8.997l25.545 30.174h.131V194.69h8.941v43.735Z"/><path fill="#8C528C" d="m97.292 248.268-.093-.12a114.997 114.997 0 0 1-50.396-47.345 110.463 110.463 0 0 1-41.072-55.017 110.315 110.315 0 0 0 81.422 141.67 110.305 110.305 0 0 0 60.428-3.802 110.43 110.43 0 0 1-50.29-35.386Z"/><path fill="#8775BD" d="M197.51 247.695v-.093l-.147.08a114.84 114.84 0 0 1-100.044.559l-.187-.093.093.12a110.427 110.427 0 0 0 50.356 35.386 110.54 110.54 0 0 0 49.929-35.959Z"/><path fill="#ADC8E6" d="M97.385 248.241a114.832 114.832 0 0 0 100.045-.559 197.68 197.68 0 0 1-50.089-18.738 197.107 197.107 0 0 1-49.956 19.297Z"/><path fill="#56C1BF" d="M247.466 199.751a115.023 115.023 0 0 1-49.876 47.945v.093a110.533 110.533 0 0 1-49.929 35.958 110.305 110.305 0 0 0 113.474-26.172 110.311 110.311 0 0 0 26.778-113.334 110.356 110.356 0 0 1-40.447 55.51Z"/><path fill="#2EA690" d="M247.24 89.49a114.773 114.773 0 0 1 .226 110.181 110.36 110.36 0 0 0 40.447-55.456 110.544 110.544 0 0 0-40.673-54.724Z"/><path fill="#81DEC8" d="M247.466 199.751a114.772 114.772 0 0 0-.226-110.18 197.966 197.966 0 0 1-18.473 55.229 197.718 197.718 0 0 1 18.699 54.951Z"/><path fill="#A2EBDA" d="M228.768 144.734a203.233 203.233 0 0 1-9.43 16.528 200.276 200.276 0 0 1-55.522 57.56 216.542 216.542 0 0 1-16.408 10.122 197.656 197.656 0 0 0 50.022 18.752l.147-.08a115.017 115.017 0 0 0 49.876-47.945 197.739 197.739 0 0 0-18.685-54.937Z"/><path fill="#FF7A7F" d="M45.818 90.543a.993.993 0 0 0 .093-.16 115.187 115.187 0 0 1 50.608-48.65 110.54 110.54 0 0 1 49.464-35.426 110.315 110.315 0 0 0-143.022 79 110.313 110.313 0 0 0 2.77 60.479 110.447 110.447 0 0 1 40.087-55.243Z"/><path fill="#F2666D" d="M46.79 200.803a114.736 114.736 0 0 1-.972-110.26A110.446 110.446 0 0 0 5.73 145.786a110.464 110.464 0 0 0 41.06 55.017Z"/><path fill="#FFB0BC" d="M45.924 90.543v-.08a.996.996 0 0 1-.093.16 114.734 114.734 0 0 0 .972 110.193 197.209 197.209 0 0 1 18.166-55.283 197.292 197.292 0 0 1-19.045-54.99Z"/><path fill="#FFDBDB" d="M130.8 218.982a200.032 200.032 0 0 1-56.215-57.094 212.948 212.948 0 0 1-9.563-16.382 197.226 197.226 0 0 0-18.166 55.284 115.002 115.002 0 0 0 50.37 47.358l.186.094a197.133 197.133 0 0 0 49.956-19.298 202.51 202.51 0 0 1-16.568-9.962Z"/><path fill="#68CB88" d="M195.925 41.266a115.095 115.095 0 0 1 51.261 48.252 110.54 110.54 0 0 1 40.673 54.75A110.315 110.315 0 0 0 146.062 6.333a110.445 110.445 0 0 1 49.863 34.933Z"/><path fill="#FFA252" d="M96.6 41.76a114.904 114.904 0 0 1 99.325-.494 110.445 110.445 0 0 0-49.863-34.933A110.544 110.544 0 0 0 96.599 41.76Z"/><path fill="#FFC38F" d="M146.369 60.617a196.694 196.694 0 0 1 49.569-19.35 114.906 114.906 0 0 0-99.325.545 197.65 197.65 0 0 1 49.756 18.805Z"/><path fill="#CFEDAB" d="M146.369 60.617a196.602 196.602 0 0 1 16.994 10.335 200.07 200.07 0 0 1 55.775 57.121 201.775 201.775 0 0 1 9.629 16.661 197.983 197.983 0 0 0 18.472-55.23 115.09 115.09 0 0 0-51.274-48.238 196.69 196.69 0 0 0-49.596 19.351Z"/><path fill="#F9D4B2" d="M64.956 145.506a212.83 212.83 0 0 1 9.322-16.634 199.905 199.905 0 0 1 55.204-57.733 196.404 196.404 0 0 1 16.887-10.522 197.622 197.622 0 0 0-49.796-18.831 115.187 115.187 0 0 0-50.609 48.65v.107a197.28 197.28 0 0 0 18.992 54.963Z"/><path fill="#fff" d="M163.362 70.952a196.433 196.433 0 0 0-16.993-10.335 196.575 196.575 0 0 0-16.888 10.522 199.91 199.91 0 0 0-55.15 57.733 189.323 189.323 0 0 0-9.322 16.634 198.026 198.026 0 0 0 9.562 16.382 200.052 200.052 0 0 0 56.282 57.094 211.707 211.707 0 0 0 16.541 9.962 198.712 198.712 0 0 0 16.408-10.122 200.29 200.29 0 0 0 55.589-57.56 192.283 192.283 0 0 0 9.429-16.528 202.69 202.69 0 0 0-9.628-16.661 200.086 200.086 0 0 0-55.83-57.12Z"/></svg>
